HIERARCHY
ROOT Hips
{
	OFFSET -0.001795 -0.223333 0.028219
	CHANNELS 6 Xposition Yposition Zposition Zrotation Yrotation Xrotation 
	JOINT LeftUpLeg
	{
		OFFSET 0.069520 -0.091406 -0.006815
		CHANNELS 3 Zrotation Yrotation Xrotation
		JOINT LeftLeg
		{
			OFFSET 0.034277 -0.375199 -0.004496
			CHANNELS 3 Zrotation Yrotation Xrotation
			JOINT LeftFoot
			{
				OFFSET -0.013596 -0.397961 -0.043693
				CHANNELS 3 Zrotation Yrotation Xrotation
				JOINT LeftToe
				{
					OFFSET 0.026358 -0.055791 0.119288
					CHANNELS 3 Zrotation Yrotation Xrotation
					End Site
					{
						OFFSET 0.000000 0.000000 0.000000
					}
				}
			}
		}
	}
	JOINT RightUpLeg
	{
		OFFSET -0.067670 -0.090522 -0.004320
		CHANNELS 3 Zrotation Yrotation Xrotation
		JOINT RightLeg
		{
			OFFSET -0.038290 -0.382569 -0.008850
			CHANNELS 3 Zrotation Yrotation Xrotation
			JOINT RightFoot
			{
				OFFSET 0.015774 -0.398415 -0.042312
				CHANNELS 3 Zrotation Yrotation Xrotation
				JOINT RightToe
				{
					OFFSET -0.025372 -0.048144 0.123348
					CHANNELS 3 Zrotation Yrotation Xrotation
					End Site
					{
						OFFSET 0.000000 0.000000 0.000000
					}
				}
			}
		}
	}
	JOINT Spine
	{
		OFFSET -0.002533 0.108963 -0.026696
		CHANNELS 3 Zrotation Yrotation Xrotation
		JOINT Spine1
		{
			OFFSET 0.005487 0.135180 0.001092
			CHANNELS 3 Zrotation Yrotation Xrotation
			JOINT Spine2
			{
				OFFSET 0.001457 0.052922 0.025425
				CHANNELS 3 Zrotation Yrotation Xrotation
				JOINT Neck
				{
					OFFSET -0.002778 0.213870 -0.042857
					CHANNELS 3 Zrotation Yrotation Xrotation
					JOINT Head
					{
						OFFSET 0.005152 0.064970 0.051349
						CHANNELS 3 Zrotation Yrotation Xrotation
						End Site
						{
							OFFSET 0.000000 0.000000 0.000000
						}
					}
				}
				JOINT LeftShoulder
				{
					OFFSET 0.078845 0.121749 -0.034090
					CHANNELS 3 Zrotation Yrotation Xrotation
					JOINT LeftArm
					{
						OFFSET 0.090977 0.030469 -0.008868
						CHANNELS 3 Zrotation Yrotation Xrotation
						JOINT LeftForeArm
						{
							OFFSET 0.259612 -0.012772 -0.027456
							CHANNELS 3 Zrotation Yrotation Xrotation
							JOINT LeftHand
							{
								OFFSET 0.249234 0.008986 -0.001171
								CHANNELS 3 Zrotation Yrotation Xrotation
								End Site
								{
									OFFSET 0.000000 0.000000 0.000000
								}
							}
						}
					}
				}
				JOINT RightShoulder
				{
					OFFSET -0.081759 0.118833 -0.038615
					CHANNELS 3 Zrotation Yrotation Xrotation
					JOINT RightArm
					{
						OFFSET -0.096012 0.032551 -0.009143
						CHANNELS 3 Zrotation Yrotation Xrotation
						JOINT RightForeArm
						{
							OFFSET -0.253742 -0.013329 -0.021401
							CHANNELS 3 Zrotation Yrotation Xrotation
							JOINT RightHand
							{
								OFFSET -0.255298 0.007772 -0.005559
								CHANNELS 3 Zrotation Yrotation Xrotation
								End Site
								{
									OFFSET 0.000000 0.000000 0.000000
								}
							}
						}
					}
				}
			}
		}
	}
}
MOTION
Frames: 10
Frame Time: 0.050000
-0.421108 0.945297 1.821661 170.305217 87.702105 163.889879 -1.453313 -0.395823 -6.955667 -1.242902 -1.068083 5.874522 2.099526 8.295303 12.177075 0.000000 0.000000 0.000000 -8.932335 -5.722014 13.070371 -9.031362 -8.380720 29.321339 7.910791 11.773466 10.914698 0.000000 0.000000 0.000000 -2.756318 -1.349536 12.124181 -3.482895 0.725774 -4.629079 4.736332 5.451963 7.979171 -1.060647 7.275613 -17.699354 0.000000 0.000000 0.000000 -22.715789 -4.797644 -20.405440 -46.065340 10.300648 -5.402532 -15.583474 -22.215596 1.033747 0.000000 0.000000 0.000000 21.997342 -4.518726 11.042117 47.079587 21.562924 0.724917 4.372799 26.213090 2.396228 0.000000 0.000000 0.000000 
-0.387314 0.950368 1.796778 173.566062 85.692361 166.734511 -3.326142 -0.116737 -3.868445 -1.555789 -1.111869 5.508868 3.177538 7.418916 10.210063 0.000000 0.000000 0.000000 -9.386258 -5.021800 7.713277 -15.974665 -13.772489 42.109453 9.549004 14.184450 14.124770 0.000000 0.000000 0.000000 -3.690332 -1.755902 13.758666 -3.094639 0.803507 -5.422918 5.212438 4.178271 8.660075 -1.129641 7.680053 -18.474261 0.000000 0.000000 0.000000 -23.310323 -5.563279 -20.977129 -44.257608 9.954099 -4.516152 -16.430102 -23.581948 1.313116 0.000000 0.000000 0.000000 20.344185 -4.241062 10.370161 48.225102 20.166767 0.715272 5.494028 27.421721 2.945279 0.000000 0.000000 0.000000 
-0.355985 0.953223 1.774878 178.525159 83.332531 171.244274 -4.786700 -0.073720 -0.503011 -1.270527 -1.038200 4.551096 3.580845 6.568346 9.049757 0.000000 0.000000 0.000000 -8.072080 -4.208738 2.337563 -23.494146 -17.513834 52.866732 11.419909 16.959013 12.656455 0.000000 0.000000 0.000000 -3.563251 -2.126557 15.009618 -3.179292 0.673050 -5.236245 5.498138 2.129174 7.610731 -2.496383 8.177135 -18.109730 0.000000 0.000000 0.000000 -23.215199 -5.156840 -20.396529 -43.432089 8.480841 -3.981791 -17.490701 -24.730351 1.667156 0.000000 0.000000 0.000000 19.817935 -3.381054 10.259832 49.058895 19.082862 0.563610 5.522431 28.476396 3.164004 0.000000 0.000000 0.000000 
-0.325623 0.955304 1.754888 178.794128 81.548044 170.623751 -6.082769 -0.375354 3.741078 -0.722873 -0.885204 2.741284 4.141383 5.811172 7.683283 0.000000 0.000000 0.000000 -6.787000 -3.850026 -3.016553 -28.478281 -18.876368 58.985690 12.426630 19.051044 9.409066 0.000000 0.000000 0.000000 -3.514754 -2.567579 16.398863 -3.046701 0.572269 -5.196239 5.192834 0.929624 7.907013 -2.080793 8.063396 -17.983536 0.000000 0.000000 0.000000 -23.019677 -6.249645 -19.719384 -42.773981 7.125284 -3.277738 -17.024893 -26.069710 1.667144 0.000000 0.000000 0.000000 20.664312 -2.978691 11.033895 48.534391 19.591319 0.248008 5.323064 28.977681 3.171945 0.000000 0.000000 0.000000 
-0.295539 0.956349 1.736180 -177.825694 79.606961 173.396172 -6.699354 -1.069450 7.756648 -0.047504 -0.750158 1.439173 5.279974 5.741579 6.698019 0.000000 0.000000 0.000000 -5.275065 -3.818052 -7.790239 -26.895684 -20.135328 58.675869 11.058243 17.229832 7.235140 0.000000 0.000000 0.000000 -3.046106 -2.916981 17.216753 -2.294109 0.563573 -5.883487 4.528007 -0.258303 8.445596 -2.228295 8.086519 -17.395237 0.000000 0.000000 0.000000 -23.356768 -7.101865 -19.821200 -41.952693 6.259822 -2.670936 -16.114654 -26.766324 1.584814 0.000000 0.000000 0.000000 21.015350 -2.463599 11.748901 48.627938 19.478136 0.036141 4.748672 29.541699 3.061754 0.000000 0.000000 0.000000 
-0.265775 0.955260 1.718740 -176.375038 77.622868 174.438810 -7.368062 -1.954459 11.235478 -0.068344 -0.742595 0.252845 5.899005 5.101782 5.286650 0.000000 0.000000 0.000000 -3.469752 -4.092105 -12.399326 -21.392312 -20.307832 53.163448 9.629907 14.478857 5.120576 0.000000 0.000000 0.000000 -2.271098 -3.319739 18.057216 -2.237545 0.429737 -5.815596 4.433857 -1.400229 8.504738 -2.041827 8.059072 -17.155997 0.000000 0.000000 0.000000 -23.488563 -7.104212 -20.070874 -42.065053 5.146377 -2.209606 -15.299670 -27.523376 1.419711 0.000000 0.000000 0.000000 21.315521 -2.536878 11.928568 48.486339 19.600902 -0.111108 4.358391 29.735159 3.009114 0.000000 0.000000 0.000000 
-0.235708 0.952200 1.702468 -175.973424 76.138724 174.013258 -8.770272 -3.149677 15.247253 0.804718 -0.609567 -0.945563 5.110417 4.175351 4.473733 0.000000 0.000000 0.000000 -1.785222 -4.371406 -15.718966 -13.926132 -18.200519 43.842066 7.023107 9.462243 4.513870 0.000000 0.000000 0.000000 -2.285139 -3.887349 19.376503 -1.645077 0.645293 -6.959738 3.831164 -2.031682 9.867170 -1.934582 8.114209 -17.039521 0.000000 0.000000 0.000000 -23.707940 -7.727850 -20.398809 -41.464072 4.427931 -1.722909 -15.190811 -28.553024 1.466503 0.000000 0.000000 0.000000 21.585793 -2.874862 12.138672 48.489842 19.776842 -0.237528 4.644346 29.495181 3.018785 0.000000 0.000000 0.000000 
-0.205113 0.947380 1.687297 -175.684016 74.244949 173.466425 -9.575899 -4.867072 19.596432 0.636954 -0.620075 -2.009760 5.508013 4.139383 3.707874 0.000000 0.000000 0.000000 0.537772 -4.470253 -18.565674 -7.857233 -13.827602 33.197891 4.657138 4.965254 5.231286 0.000000 0.000000 0.000000 -1.847787 -4.570490 20.677020 -1.120950 0.517643 -7.019523 3.504163 -2.301601 10.299062 -1.102902 7.816019 -16.927235 0.000000 0.000000 0.000000 -23.740023 -8.900622 -20.366943 -41.423368 4.776139 -1.639412 -15.369665 -29.773035 1.502164 0.000000 0.000000 0.000000 21.625690 -3.435130 11.935983 48.533884 19.307223 -0.414127 3.900365 29.835192 2.895727 0.000000 0.000000 0.000000 
-0.173765 0.941774 1.673258 -176.813009 73.022629 172.166314 -11.552117 -6.036726 22.660183 1.389247 -0.506738 -2.269983 6.133058 3.832875 2.170010 0.000000 0.000000 0.000000 1.679269 -4.723800 -20.282278 -3.700800 -8.780578 22.946099 2.386485 1.457399 7.071734 0.000000 0.000000 0.000000 -1.628140 -4.937520 21.230469 -1.511602 0.539955 -7.046330 3.511275 -3.163397 10.860364 -1.367450 8.205669 -17.783340 0.000000 0.000000 0.000000 -24.182176 -9.223239 -20.709311 -41.697385 4.131237 -1.278889 -14.628693 -30.421824 1.354742 0.000000 0.000000 0.000000 20.581591 -2.852774 11.666000 50.095769 18.652339 -0.090399 3.089445 28.453181 2.440981 0.000000 0.000000 0.000000 
-0.140813 0.936244 1.660445 -177.131109 71.850613 172.313882 -12.197275 -6.917042 24.415943 1.493946 -0.489497 -2.373785 5.223953 2.826321 1.806463 0.000000 0.000000 0.000000 3.130400 -4.706952 -21.354920 -1.398694 -4.184757 12.392841 1.119529 0.514407 10.726438 0.000000 0.000000 0.000000 -0.663346 -5.034737 21.073649 -1.702343 0.371909 -6.877758 2.969903 -3.753094 10.647285 -1.355516 7.986659 -17.092161 0.000000 0.000000 0.000000 -23.635032 -10.750283 -20.040365 -42.717292 4.454022 -1.425423 -13.374692 -30.961709 0.872783 0.000000 0.000000 0.000000 21.259171 -3.754048 11.641684 50.050246 18.165799 -0.478026 2.885050 27.287380 2.166090 0.000000 0.000000 0.000000 
